HIERARCHY
ROOT joint_Root
{
  OFFSET 0 0 0
  CHANNELS 6 Xposition Yposition Zposition Zrotation Xrotation Yrotation
  JOINT Hips
  {
    OFFSET 0.847027 93.984 -452.225
    CHANNELS 6 Xposition Yposition Zposition Zrotation Xrotation Yrotation
    JOINT Spine
    {
      OFFSET 15.7357 0 0
      CHANNELS 6 Xposition Yposition Zposition Zrotation Xrotation Yrotation
      JOINT Chest
      {
        OFFSET 8.98455 -0.406207 0
        CHANNELS 6 Xposition Yposition Zposition Zrotation Xrotation Yrotation
        JOINT Neck
        {
          OFFSET 16.3773 0 0
          CHANNELS 6 Xposition Yposition Zposition Zrotation Xrotation Yrotation
          JOINT Head
          {
            OFFSET 6.45672 0 0
            CHANNELS 6 Xposition Yposition Zposition Zrotation Xrotation Yrotation
            End Site
            {
              OFFSET 0 0 0
            }
          }
        }
        JOINT Shoulder_L
        {
          OFFSET 12.9942 -0.242716 4.98039
          CHANNELS 6 Xposition Yposition Zposition Zrotation Xrotation Yrotation
          JOINT UpperArm_L
          {
            OFFSET 5.34809 0 0
            CHANNELS 6 Xposition Yposition Zposition Zrotation Xrotation Yrotation
            JOINT LowerArm_L
            {
              OFFSET 24.3286 1.87007e-05 0
              CHANNELS 6 Xposition Yposition Zposition Zrotation Xrotation Yrotation
              JOINT Hand_L
              {
                OFFSET 22.2916 0 0
                CHANNELS 6 Xposition Yposition Zposition Zrotation Xrotation Yrotation
                End Site
                {
                  OFFSET 0 0 0
                }
              }
            }
          }
        }
        JOINT Shoulder_R
        {
          OFFSET 12.9945 -0.242716 -4.98039
          CHANNELS 6 Xposition Yposition Zposition Zrotation Xrotation Yrotation
          JOINT UpperArm_R
          {
            OFFSET -5.34813 0 0
            CHANNELS 6 Xposition Yposition Zposition Zrotation Xrotation Yrotation
            JOINT LowerArm_R
            {
              OFFSET -24.3289 0.000322201 0
              CHANNELS 6 Xposition Yposition Zposition Zrotation Xrotation Yrotation
              JOINT Hand_R
              {
                OFFSET -22.2915 -0.000108084 0
                CHANNELS 6 Xposition Yposition Zposition Zrotation Xrotation Yrotation
                End Site
                {
                  OFFSET 0 0 0
                }
              }
            }
          }
        }
      }
    }
    JOINT UpperLeg_L
    {
      OFFSET -2.19248 -6.46944 0
      CHANNELS 6 Xposition Yposition Zposition Zrotation Xrotation Yrotation
      JOINT LowerLeg_L
      {
        OFFSET 39.0811 0 -1.23785e-05
        CHANNELS 6 Xposition Yposition Zposition Zrotation Xrotation Yrotation
        JOINT Foot_L
        {
          OFFSET 40.9854 0 -1.26872e-05
          CHANNELS 6 Xposition Yposition Zposition Zrotation Xrotation Yrotation
          JOINT Toes_L
          {
            OFFSET 11.7543 0 0
            CHANNELS 6 Xposition Yposition Zposition Zrotation Xrotation Yrotation
            End Site
            {
              OFFSET 0 0 0
            }
          }
        }
      }
    }
    JOINT UpperLeg_R
    {
      OFFSET -2.19251 6.46944 0
      CHANNELS 6 Xposition Yposition Zposition Zrotation Xrotation Yrotation
      JOINT LowerLeg_R
      {
        OFFSET -39.0811 -0.00228153 -0.0401928
        CHANNELS 6 Xposition Yposition Zposition Zrotation Xrotation Yrotation
        JOINT Foot_R
        {
          OFFSET -40.9854 0 0
          CHANNELS 6 Xposition Yposition Zposition Zrotation Xrotation Yrotation
          JOINT Toes_R
          {
            OFFSET -11.7543 0 0
            CHANNELS 6 Xposition Yposition Zposition Zrotation Xrotation Yrotation
            End Site
            {
              OFFSET 0 0 0
            }
          }
        }
      }
    }
  }
}
MOTION
Frames:	8
Frame Time:	0.0333333
0 0 0 0 0 -0 -138.108 84.722 98.8365 92.5342 -1.20716 -16.3396 15.7357 5.1072e-06 -5.51765e-07 95.1518 80.8294 -94.3323 8.98455 -0.406207 -4.3199e-07 10.4927 1.65509 1.48616 16.3773 -1.3905e-06 -6.99897e-07 -4.40675 -4.09503 4.51526 6.45672 -1.25837e-06 -1.02172e-07 -22.6113 -1.64824 -2.31022 12.9942 -0.242716 4.98039 -91.0332 4.01157 -90.5463 5.34809 -7.22636e-06 -6.2814e-07 -66.1018 -3.17741 7.87937 24.3286 1.87007e-05 4.90208e-06 -6.2337 -5.80886 -47.2012 22.2916 -9.88446e-07 4.63217e-06 15.0058 5.62765 -13.1332 12.9945 -0.242716 -4.98039 89.5348 2.61105 -94.9015 -5.34813 -1.25947e-06 -3.79883e-06 -24.5551 -38.4064 -48.9343 -24.3289 0.000322201 -8.65921e-06 -4.68561 -1.99035 -66.9559 -22.2915 -0.000108084 -4.47941e-06 10.5844 5.45548 -4.83654 -2.19248 -6.46944 -1.22533e-07 -173.847 -6.3007 -38.275 39.0811 -6.73843e-06 -1.23785e-05 0.752999 0.105117 98.6736 40.9854 -6.48686e-06 -1.26872e-05 -3.14692 -1.67898 -29.9425 11.7543 -2.30145e-07 3.05095e-06 0.117552 -0.19345 -19.9793 -2.19251 6.46944 -1.45247e-06 -172.134 14.9228 133.401 -39.0811 -0.00228153 -0.0401928 0.114985 -0.0629055 56.4314 -40.9854 7.72618e-06 5.99936e-06 3.47808 -14.478 -76.7431 -11.7543 -5.6619e-06 -5.58687e-06 -0.492203 -0.755513 -17.9857 
0 0 0 0 0 -0 -138.289 85.0036 109.822 92.6593 -1.68306 -17.4277 15.7357 5.1072e-06 -5.51765e-07 98.7685 80.7073 -98.2759 8.98455 -0.406207 -4.3199e-07 10.5996 2.82554 0.722554 16.3773 -1.3905e-06 -6.99897e-07 -5.41731 -4.13923 5.20254 6.45672 -1.25837e-06 -1.02172e-07 -22.8226 -2.41017 -1.78328 12.9942 -0.242716 4.98039 -91.0185 3.74427 -89.7691 5.34809 -7.22636e-06 -6.2814e-07 -66.334 -7.00422 13.2609 24.3286 1.87007e-05 4.90208e-06 -8.84328 -8.79298 -45.504 22.2916 -9.88446e-07 4.63217e-06 19.0438 5.62391 -12.9134 12.9945 -0.242716 -4.98039 89.6684 2.01709 -95.6603 -5.34813 -1.25947e-06 -3.79883e-06 -32.6262 -39.9671 -59.933 -24.3289 0.000322201 -8.65921e-06 -0.730822 -0.445367 -58.5101 -22.2915 -0.000108084 -4.47941e-06 11.0863 5.45564 -4.84533 -2.19248 -6.46944 -1.22534e-07 -175.44 -8.00243 -50.6364 39.0811 -6.73843e-06 -1.23785e-05 0.587789 0.117641 102.725 40.9854 -6.48686e-06 -1.26872e-05 0.435063 0.173635 -36.1505 11.7543 -2.30145e-07 3.05095e-06 0.118086 -0.194386 -19.9955 -2.19251 6.46944 -1.45247e-06 -174.109 18.5235 141.898 -39.0811 -0.00228153 -0.0401928 0.130965 -0.0718223 54.6248 -40.9854 7.72618e-06 5.99936e-06 1.09499 -10.2639 -82.0068 -11.7543 -5.6619e-06 -5.58687e-06 -0.307268 -0.964225 -20.3156 
0 0 0 0 0 -0 -138.575 86.7065 121.334 93.2068 -1.5773 -19.2322 15.7357 5.1072e-06 -5.51765e-07 101.935 81.0554 -102.172 8.98455 -0.406207 -4.3199e-07 9.75893 3.67302 -0.788238 16.3773 -1.3905e-06 -6.99897e-07 -5.73595 -4.6612 5.62286 6.45672 -1.25837e-06 -1.02172e-07 -22.9928 -3.90849 -0.465262 12.9942 -0.242716 4.98039 -90.7106 2.4849 -89.0362 5.34809 -7.22636e-06 -6.2814e-07 -66.2268 -12.4028 17.8121 24.3286 1.87007e-05 4.90208e-06 -10.4875 -9.18625 -49.2159 22.2916 -9.88446e-07 4.63217e-06 17.4384 5.61925 -12.5665 12.9945 -0.242716 -4.98039 89.6713 1.88296 -95.0956 -5.34813 -1.25947e-06 -3.79883e-06 -42.4543 -36.0676 -66.9129 -24.3289 0.000322201 -8.65921e-06 -3.39577 -2.70047 -51.6045 -22.2915 -0.000108084 -4.47941e-06 14.6071 5.43713 -4.19666 -2.19248 -6.46944 -1.22534e-07 -178.224 -8.62737 -59.1095 39.0811 -6.73843e-06 -1.23785e-05 0.433939 0.0258943 95.692 40.9854 -6.48686e-06 -1.26872e-05 -1.51141 -0.654059 -42.8469 11.7543 -2.30145e-07 3.05095e-06 0.135215 -0.22489 -20.5208 -2.19251 6.46944 -1.45247e-06 -177.412 22.7844 152.085 -39.0811 -0.00228153 -0.0401928 0.0952681 -0.0605582 47.1174 -40.9854 7.72618e-06 5.99936e-06 -1.39239 -4.24564 -77.3644 -11.7543 -5.6619e-06 -5.58687e-06 0.824174 -1.09675 -26.6696 
0 0 0 0 0 -0 -138.783 89.1515 132.982 93.8409 -2.21858 -21.5732 15.7357 5.1072e-06 -5.51765e-07 105.974 81.7643 -107.236 8.98455 -0.406207 -4.3199e-07 8.13933 4.50895 -2.84379 16.3773 -1.3905e-06 -6.99897e-07 -5.93838 -4.98292 5.15965 6.45672 -1.25837e-06 -1.02172e-07 -22.615 -5.76508 0.798633 12.9942 -0.242716 4.98039 -90.3059 1.06379 -88.957 5.34809 -7.22636e-06 -6.2814e-07 -65.438 -16.2732 20.9018 24.3286 1.87007e-05 4.90208e-06 -11.7109 -8.73236 -53.7879 22.2916 -9.88446e-07 4.63217e-06 15.6499 5.61 -11.957 12.9945 -0.242716 -4.98039 89.6066 2.45298 -95.8828 -5.34813 -1.25947e-06 -3.79883e-06 -46.6087 -31.0158 -64.6163 -24.3289 0.000322201 -8.65921e-06 -7.45992 -6.58979 -48.7661 -22.2915 -0.000108084 -4.47941e-06 15.1161 5.44041 -4.30875 -2.19248 -6.46944 -1.22534e-07 177.633 -8.95165 -63.2075 39.0811 -6.73843e-06 -1.23785e-05 0.196487 -0.0546352 80.0164 40.9854 -6.48686e-06 -1.26872e-05 -2.35725 -2.23093 -48.6037 11.7543 -2.30145e-07 3.05095e-06 0.135758 -0.225861 -20.5376 -2.19251 6.46944 -1.45247e-06 178.705 25.8307 160.668 -39.0811 -0.00228153 -0.0401928 0.139219 -0.146461 38.0034 -40.9854 7.72618e-06 5.99936e-06 -3.41468 1.21212 -62.0516 -11.7543 -5.6619e-06 -5.58687e-06 1.59743 -2.73952 -40.028 
0 0 0 0 0 -0 -139.079 91.1013 144.652 93.2102 -2.50185 -23.3767 15.7357 5.1072e-06 -5.51765e-07 111.951 82.3186 -113.909 8.98455 -0.406207 -4.3199e-07 6.61 5.74484 -4.2464 16.3773 -1.3905e-06 -6.99897e-07 -5.50855 -5.36227 4.75276 6.45672 -1.25837e-06 -1.02172e-07 -22.8957 -7.71782 1.72007 12.9942 -0.242716 4.98039 -90.0724 0.246312 -88.6122 5.34809 -7.22636e-06 -6.2814e-07 -63.5802 -19.9341 20.3643 24.3286 1.87007e-05 4.90208e-06 -8.49363 -5.35717 -57.9989 22.2916 -9.88446e-07 4.63217e-06 15.8347 5.59006 -10.7706 12.9945 -0.242716 -4.98039 89.5378 3.54412 -97.5587 -5.34813 -1.25947e-06 -3.79883e-06 -48.8249 -27.1599 -56.9081 -24.3289 0.000322201 -8.65921e-06 -7.84523 -7.07811 -48.1884 -22.2915 -0.000108084 -4.47941e-06 11.9841 5.46208 -5.08176 -2.19248 -6.46944 -1.22534e-07 174.3 -10.4027 -62.6396 39.0811 -6.73843e-06 -1.23785e-05 0.0692391 -0.0593451 58.5628 40.9854 -6.48686e-06 -1.26872e-05 -4.40324 0.013528 -52.2986 11.7543 -2.30145e-07 3.05095e-06 0.138786 -0.231342 -20.6318 -2.19251 6.46944 -1.45247e-06 176.148 22.9634 166.368 -39.0811 -0.00228153 -0.0401928 0.243872 -0.355893 32.2999 -40.9854 7.72618e-06 5.99936e-06 -5.47476 2.01504 -41.4919 -11.7543 -5.6619e-06 -5.58687e-06 1.68316 -3.01157 -42.1214 
0 0 0 0 0 -0 -139.592 91.2069 156.896 90.5058 -1.89744 -22.0168 15.7357 5.1072e-06 -5.51765e-07 114.323 81.7334 -116.056 8.98455 -0.406207 -4.3199e-07 7.44424 6.78927 -3.90644 16.3773 -1.3905e-06 -6.99897e-07 -5.2897 -5.40836 4.47219 6.45672 -1.25837e-06 -1.02172e-07 -24.4661 -8.95919 2.20686 12.9942 -0.242716 4.98039 -90.1477 0.486884 -88.1289 5.34809 -7.22636e-06 -6.2814e-07 -61.6919 -23.4339 16.1936 24.3286 1.87007e-05 4.90208e-06 -8.59383 -4.38259 -63.1723 22.2916 -9.88446e-07 4.63217e-06 17.6564 5.58826 -10.6482 12.9945 -0.242716 -4.98039 89.5037 4.67327 -98.9306 -5.34813 -1.25947e-06 -3.79883e-06 -50.6268 -23.936 -49.6367 -24.3289 0.000322201 -8.65921e-06 -6.10084 -5.76017 -46.8667 -22.2915 -0.000108084 -4.47941e-06 11.5375 5.4596 -4.98901 -2.19248 -6.46944 -1.22534e-07 173.177 -14.0236 -57.2231 39.0811 -6.73843e-06 -1.23785e-05 -0.0286281 0.0252576 38.3825 40.9854 -6.48686e-06 -1.26872e-05 -10.5457 6.35064 -52.051 11.7543 -2.30145e-07 3.05095e-06 0.157361 -0.265335 -21.2138 -2.19251 6.46944 -1.45247e-06 176.975 14.6643 168.941 -39.0811 -0.00228153 -0.0401928 0.349815 -0.375628 40.8478 -40.9854 7.72618e-06 5.99936e-06 -2.5181 -0.281507 -33.1974 -11.7543 -5.6619e-06 -5.58687e-06 0.333063 -0.39596 -20.379 
0 0 0 0 0 -0 -139.851 89.926 169.289 88.1296 -1.57692 -19.6121 15.7357 5.1072e-06 -5.51765e-07 111.67 81.0765 -112.918 8.98455 -0.406207 -4.3199e-07 8.93586 6.54368 -3.00736 16.3773 -1.3905e-06 -6.99897e-07 -5.25988 -4.76971 3.91467 6.45672 -1.25837e-06 -1.02172e-07 -24.977 -8.92165 2.36246 12.9942 -0.242716 4.98039 -90.2099 0.701005 -88.3337 5.34809 -7.22636e-06 -6.2814e-07 -61.3199 -26.7952 10.2764 24.3286 1.87007e-05 4.90208e-06 -9.3188 -3.68177 -68.629 22.2916 -9.88446e-07 4.63217e-06 20.0197 5.59488 -11.0393 12.9945 -0.242716 -4.98039 89.591 4.71011 -100.032 -5.34813 -1.25947e-06 -3.79883e-06 -53.4613 -20.9255 -44.621 -24.3289 0.000322201 -8.65921e-06 -4.70595 -4.68681 -45.2089 -22.2915 -0.000108084 -4.47941e-06 13.3826 5.45353 -4.77007 -2.19248 -6.46944 -1.22534e-07 172.157 -17.4188 -52.3892 39.0811 -6.73843e-06 -1.23785e-05 -0.0571975 0.0939257 29.2515 40.9854 -6.48686e-06 -1.26872e-05 -12.4173 5.02111 -47.1953 11.7543 -2.30145e-07 3.05095e-06 0.172975 -0.294591 -21.7121 -2.19251 6.46944 -1.45247e-06 178.224 9.94503 167.088 -39.0811 -0.00228153 -0.0401928 0.585958 -0.30806 60.7251 -40.9854 7.72618e-06 5.99936e-06 -4.68254 -1.25259 -33.1896 -11.7543 -5.6619e-06 -5.58687e-06 0.364695 -0.436483 -20.7568 
0 0 0 0 0 -0 -139.649 87.58 181.112 87.275 -1.14919 -20.4878 15.7357 5.1072e-06 -5.51765e-07 106.699 82.0434 -107.729 8.98455 -0.406207 -4.3199e-07 7.5361 4.557 -2.35878 16.3773 -1.3905e-06 -6.99897e-07 -4.53982 -4.06088 3.29933 6.45672 -1.25837e-06 -1.02172e-07 -23.3873 -8.14128 3.27365 12.9942 -0.242716 4.98039 -90.3464 1.18013 -88.6418 5.34809 -7.22636e-06 -6.2814e-07 -60.8053 -28.2639 3.0432 24.3286 1.87007e-05 4.90208e-06 -10.2621 -3.01454 -73.796 22.2916 -9.88446e-07 4.63217e-06 19.5822 5.58505 -10.4837 12.9945 -0.242716 -4.98039 89.5279 5.77015 -100.315 -5.34813 -1.25947e-06 -3.79883e-06 -53.5917 -17.71 -40.0096 -24.3289 0.000322201 -8.65921e-06 -4.99456 -4.90213 -45.6279 -22.2915 -0.000108084 -4.47941e-06 13.0911 5.43986 -4.27858 -2.19248 -6.46944 -1.22533e-07 171.699 -15.2193 -54.1835 39.0811 -6.73843e-06 -1.23785e-05 -0.00426021 0.00200679 42.9716 40.9854 -6.48686e-06 -1.26872e-05 6.69665 -1.87857 -60.4539 11.7543 -2.30145e-07 3.05095e-06 -0.754276 -0.895227 -17.3097 -2.19251 6.46944 -1.45247e-06 178.218 10.1077 156.472 -39.0811 -0.00228153 -0.0401928 0.944246 -0.10105 83.6365 -40.9854 7.72618e-06 5.99936e-06 -5.19368 -4.3031 -28.9397 -11.7543 -5.6619e-06 -5.58687e-06 0.313167 -0.370757 -20.143 
